<svg xmlns="http://www.w3.org/2000/svg" width="15.676" height="15.676" viewBox="0 0 15.676 15.676">
  <g id="Group_30" data-name="Group 30" transform="translate(-164.902 87.1) rotate(-45)">
    <g id="Path_16" data-name="Path 16" transform="translate(173.057 60.311)" fill="none">
      <path d="M5.143-.08A5.216,5.216,0,1,1-.08,5.143,5.2,5.2,0,0,1,5.143-.08Z" stroke="none"/>
      <path d="M 5.151175975799561 1.919492721557617 L 5.145832061767578 1.919501304626465 L 5.145712375640869 1.919501304626465 C 3.369232177734375 1.921961784362793 1.921961784362793 3.369231700897217 1.919502258300781 5.145711898803711 C 1.918312072753906 6.003011703491211 2.250452041625977 6.808401584625244 2.854742050170898 7.41353178024292 C 3.459042072296143 8.018661499023438 4.263922214508057 8.351931571960449 5.119872093200684 8.351931571960449 L 5.125592231750488 8.351922035217285 L 5.125711917877197 8.351922035217285 C 6.902192115783691 8.349461555480957 8.349462509155273 6.902191638946533 8.351922035217285 5.125721454620361 C 8.35311222076416 4.268421649932861 8.02097225189209 3.463021755218506 7.416682243347168 2.85789155960083 C 6.812556266784668 2.252936363220215 6.008062362670898 1.919695854187012 5.151175975799561 1.919492721557617 M 5.150323867797852 -0.08050346374511719 C 8.027997016906738 -0.08050346374511719 10.35590934753418 2.249937057495117 10.35192203521729 5.128491878509521 C 10.34793186187744 8.009321212768555 8.009322166442871 10.34793186187744 5.128482341766357 10.35192203521729 C 5.126196384429932 10.35192489624023 5.123385429382324 10.35192680358887 5.121100425720215 10.35192680358887 C 2.243427276611328 10.35192680358887 -0.08448505401611328 8.021486282348633 -0.08049774169921875 5.142941474914551 C -0.076507568359375 2.262102127075195 2.262102127075195 -0.07650852203369141 5.142941951751709 -0.08049869537353516 C 5.145227909088135 -0.08050155639648438 5.148038864135742 -0.08050346374511719 5.150323867797852 -0.08050346374511719 Z" stroke="none" fill="#212529"/>
    </g>
    <line id="Line_1" data-name="Line 1" y2="6.21" transform="translate(178.193 69.974)" fill="none" stroke="#212529" stroke-width="2"/>
  </g>
</svg>
