<svg xmlns="http://www.w3.org/2000/svg" width="15.295" height="15.295" viewBox="0 0 15.295 15.295">
  <g id="settings" transform="translate(0.25 0.25)">
    <path id="Path_10" data-name="Path 10" d="M14.033,5.754H12.649a.531.531,0,0,1-.376-.907l.979-.978a.762.762,0,0,0,0-1.078L12,1.543a.78.78,0,0,0-1.078,0l-.978.978a.531.531,0,0,1-.907-.376V.762A.762.762,0,0,0,8.28,0H6.515a.762.762,0,0,0-.762.762V2.146a.531.531,0,0,1-.907.376l-.978-.978a.78.78,0,0,0-1.078,0L1.543,2.791a.762.762,0,0,0,0,1.078l.979.978a.531.531,0,0,1-.376.907H.762A.762.762,0,0,0,0,6.515V8.279a.763.763,0,0,0,.762.762H2.146a.531.531,0,0,1,.376.907l-.979.978a.762.762,0,0,0,0,1.078l1.247,1.247a.78.78,0,0,0,1.078,0l.978-.979a.531.531,0,0,1,.907.376v1.384a.762.762,0,0,0,.762.762H8.279a.762.762,0,0,0,.762-.762V12.649a.531.531,0,0,1,.907-.376l.978.979a.78.78,0,0,0,1.078,0L13.252,12a.762.762,0,0,0,0-1.078l-.979-.978a.531.531,0,0,1,.376-.907h1.384A.762.762,0,0,0,14.8,8.28V6.515A.762.762,0,0,0,14.033,5.754Zm.214,2.526a.214.214,0,0,1-.214.214H12.649a1.079,1.079,0,0,0-.763,1.843l.979.978a.214.214,0,0,1,0,.3l-1.247,1.247a.214.214,0,0,1-.3,0l-.978-.979a1.079,1.079,0,0,0-1.843.763v1.384a.214.214,0,0,1-.214.214H6.515a.214.214,0,0,1-.214-.214V12.649a1.063,1.063,0,0,0-.666-1,1.092,1.092,0,0,0-.42-.085,1.064,1.064,0,0,0-.756.319l-.978.979a.214.214,0,0,1-.3,0L1.93,11.617a.214.214,0,0,1,0-.3l.979-.978a1.079,1.079,0,0,0-.763-1.843H.762A.214.214,0,0,1,.548,8.28V6.515A.214.214,0,0,1,.762,6.3H2.146a1.079,1.079,0,0,0,.763-1.843L1.93,3.48a.214.214,0,0,1,0-.3L3.178,1.93a.214.214,0,0,1,.3,0l.978.978A1.079,1.079,0,0,0,6.3,2.146V.762A.214.214,0,0,1,6.515.548H8.279a.214.214,0,0,1,.214.214V2.146a1.079,1.079,0,0,0,1.843.763l.978-.978a.214.214,0,0,1,.3,0l1.247,1.247a.214.214,0,0,1,0,.3l-.979.978A1.079,1.079,0,0,0,12.649,6.3h1.384a.214.214,0,0,1,.214.213Z" stroke="#4e4e4e" stroke-width="0.5"/>
    <path id="Path_11" data-name="Path 11" d="M65.132,62.667A2.466,2.466,0,1,0,67.6,65.132,2.468,2.468,0,0,0,65.132,62.667Zm0,4.384a1.918,1.918,0,1,1,1.918-1.918A1.92,1.92,0,0,1,65.132,67.05Z" transform="translate(-57.735 -57.735)" stroke="#4e4e4e" stroke-width="0.5"/>
  </g>
</svg>
